<svg xmlns="http://www.w3.org/2000/svg" xmlns:xlink="http://www.w3.org/1999/xlink" width="140" zoomAndPan="magnify" viewBox="0 0 1050 209.999996" height="28" preserveAspectRatio="xMidYMid meet" version="1.0"><defs><g/></defs><g fill="#6c63ff" fill-opacity="1"><g transform="translate(127.207038, 203.976594)"><g><path d="M 53.109375 -197.578125 L 53.109375 -19.1875 L 148.25 -19.1875 L 148.25 0 L 29.859375 0 L 29.859375 -197.578125 Z M 53.109375 -197.578125 "/></g></g><g transform="translate(283.833311, 203.976594)"><g><path d="M 108.375 2.84375 C 91.257812 2.84375 76.035156 -0.847656 62.703125 -8.234375 C 49.367188 -15.628906 38.875 -26.914062 31.21875 -42.09375 C 23.5625 -57.269531 19.734375 -76.164062 19.734375 -98.78125 C 19.734375 -121.394531 23.5625 -140.289062 31.21875 -155.46875 C 38.875 -170.65625 49.367188 -181.941406 62.703125 -189.328125 C 76.035156 -196.710938 91.257812 -200.40625 108.375 -200.40625 C 125.5 -200.40625 140.726562 -196.710938 154.0625 -189.328125 C 167.394531 -181.941406 177.890625 -170.65625 185.546875 -155.46875 C 193.203125 -140.289062 197.03125 -121.394531 197.03125 -98.78125 C 197.03125 -76.164062 193.203125 -57.269531 185.546875 -42.09375 C 177.890625 -26.914062 167.394531 -15.628906 154.0625 -8.234375 C 140.726562 -0.847656 125.5 2.84375 108.375 2.84375 Z M 108.375 -18.65625 C 128.914062 -18.65625 144.679688 -25.070312 155.671875 -37.90625 C 166.671875 -50.738281 172.171875 -71.03125 172.171875 -98.78125 C 172.171875 -126.53125 166.671875 -146.820312 155.671875 -159.65625 C 144.679688 -172.5 128.914062 -178.921875 108.375 -178.921875 C 65.851562 -178.921875 44.59375 -152.207031 44.59375 -98.78125 C 44.59375 -45.363281 65.851562 -18.65625 108.375 -18.65625 Z M 108.375 -18.65625 "/></g></g><g transform="translate(500.596506, 203.976594)"><g><path d="M 103.921875 2.84375 C 87.347656 2.84375 72.726562 -0.9375 60.0625 -8.5 C 47.40625 -16.070312 37.519531 -27.472656 30.40625 -42.703125 C 23.289062 -57.929688 19.734375 -76.625 19.734375 -98.78125 C 19.734375 -120.945312 23.535156 -139.640625 31.140625 -154.859375 C 38.753906 -170.085938 49.316406 -181.484375 62.828125 -189.046875 C 76.347656 -196.617188 91.9375 -200.40625 109.59375 -200.40625 C 128.519531 -200.40625 144.0625 -197.003906 156.21875 -190.203125 C 168.382812 -183.398438 176.988281 -173.242188 182.03125 -159.734375 L 166.890625 -150.8125 L 163.515625 -150.8125 C 158.378906 -161.082031 151.441406 -168.445312 142.703125 -172.90625 C 133.960938 -177.363281 122.925781 -179.59375 109.59375 -179.59375 C 66.257812 -179.59375 44.59375 -152.65625 44.59375 -98.78125 C 44.59375 -70.769531 50.039062 -50.320312 60.9375 -37.4375 C 71.84375 -24.550781 87.117188 -18.109375 106.765625 -18.109375 C 124.773438 -18.109375 138.265625 -22.207031 147.234375 -30.40625 C 156.203125 -38.601562 160.6875 -51.53125 160.6875 -69.1875 L 160.6875 -86.625 L 104.46875 -86.625 L 104.46875 -105.28125 L 183.25 -105.28125 L 183.25 0 L 161.765625 0 L 161.765625 -26.484375 L 158.921875 -27.15625 C 153.691406 -16.976562 146.414062 -9.429688 137.09375 -4.515625 C 127.769531 0.390625 116.710938 2.84375 103.921875 2.84375 Z M 103.921875 2.84375 "/></g></g><g transform="translate(706.008011, 203.976594)"><g><path d="M 108.375 2.84375 C 91.257812 2.84375 76.035156 -0.847656 62.703125 -8.234375 C 49.367188 -15.628906 38.875 -26.914062 31.21875 -42.09375 C 23.5625 -57.269531 19.734375 -76.164062 19.734375 -98.78125 C 19.734375 -121.394531 23.5625 -140.289062 31.21875 -155.46875 C 38.875 -170.65625 49.367188 -181.941406 62.703125 -189.328125 C 76.035156 -196.710938 91.257812 -200.40625 108.375 -200.40625 C 125.5 -200.40625 140.726562 -196.710938 154.0625 -189.328125 C 167.394531 -181.941406 177.890625 -170.65625 185.546875 -155.46875 C 193.203125 -140.289062 197.03125 -121.394531 197.03125 -98.78125 C 197.03125 -76.164062 193.203125 -57.269531 185.546875 -42.09375 C 177.890625 -26.914062 167.394531 -15.628906 154.0625 -8.234375 C 140.726562 -0.847656 125.5 2.84375 108.375 2.84375 Z M 108.375 -18.65625 C 128.914062 -18.65625 144.679688 -25.070312 155.671875 -37.90625 C 166.671875 -50.738281 172.171875 -71.03125 172.171875 -98.78125 C 172.171875 -126.53125 166.671875 -146.820312 155.671875 -159.65625 C 144.679688 -172.5 128.914062 -178.921875 108.375 -178.921875 C 65.851562 -178.921875 44.59375 -152.207031 44.59375 -98.78125 C 44.59375 -45.363281 65.851562 -18.65625 108.375 -18.65625 Z M 108.375 -18.65625 "/></g></g></g></svg>