<svg xmlns="http://www.w3.org/2000/svg" xmlns:xlink="http://www.w3.org/1999/xlink" width="280" zoomAndPan="magnify" viewBox="0 0 1050 209.999996" height="56" preserveAspectRatio="xMidYMid meet" version="1.0"><defs><g/><clipPath id="32a29a336b"><path d="M 396.558594 45 L 494 45 L 494 210 L 396.558594 210 Z M 396.558594 45 " clip-rule="nonzero"/></clipPath><clipPath id="25d4f30ccd"><path d="M 556 45 L 653.808594 45 L 653.808594 210 L 556 210 Z M 556 45 " clip-rule="nonzero"/></clipPath></defs><g clip-path="url(#32a29a336b)"><path fill="#6c63ff" d="M 411.097656 161.632812 L 411.0625 46.277344 C 406.617188 45.476562 401.828125 45 396.574219 45 L 396.574219 174.175781 C 396.574219 174.175781 454.78125 181.011719 493.953125 209.996094 C 475.851562 189.140625 448.816406 171.824219 411.097656 161.632812 " fill-opacity="1" fill-rule="nonzero"/></g><path fill="#6c63ff" d="M 440.476562 136.398438 L 440.386719 28.953125 C 435.855469 26.75 430.941406 24.8125 425.550781 23.25 L 425.550781 152.425781 C 425.550781 152.425781 472.679688 164.960938 505.019531 201.855469 C 490.171875 176.527344 469.148438 150.917969 440.476562 136.398438 " fill-opacity="1" fill-rule="nonzero"/><g clip-path="url(#25d4f30ccd)"><path fill="#6c63ff" d="M 638.894531 161.632812 L 638.933594 46.277344 C 643.378906 45.476562 648.164062 45 653.421875 45 L 653.421875 174.175781 C 653.421875 174.175781 595.214844 181.011719 556.042969 209.996094 C 574.144531 189.140625 601.179688 171.824219 638.894531 161.632812 " fill-opacity="1" fill-rule="nonzero"/></g><path fill="#6c63ff" d="M 609.515625 136.398438 L 609.605469 28.953125 C 614.136719 26.75 619.054688 24.8125 624.441406 23.25 L 624.441406 152.425781 C 624.441406 152.425781 577.3125 164.960938 544.976562 201.855469 C 559.824219 176.527344 580.847656 150.917969 609.515625 136.398438 " fill-opacity="1" fill-rule="nonzero"/><path fill="#6c63ff" d="M 524.996094 72.863281 C 524.996094 72.863281 505.761719 32.484375 454.875 0.00390625 L 454.875 129.183594 C 454.875 129.183594 492.949219 154.308594 522.667969 204.40625 L 522.667969 136.496094 C 518.65625 135.597656 515.683594 131.238281 515.683594 127.492188 C 515.683594 123.050781 519.851562 118.207031 524.996094 118.207031 C 530.140625 118.207031 534.3125 123.050781 534.3125 127.492188 C 534.3125 131.238281 531.335938 135.597656 527.324219 136.496094 L 527.324219 204.40625 C 557.046875 154.304688 595.117188 129.183594 595.117188 129.183594 L 595.117188 0.00390625 C 544.230469 32.484375 524.996094 72.863281 524.996094 72.863281 " fill-opacity="1" fill-rule="nonzero"/><g fill="#6c63ff" fill-opacity="1"><g transform="translate(521.589818, 112.874993)"><g><path d="M 4.921875 0.21875 C 3.847656 0.21875 3.03125 -0.0664062 2.46875 -0.640625 C 1.914062 -1.210938 1.640625 -2.085938 1.640625 -3.265625 L 1.640625 -16.609375 L 4.609375 -16.609375 L 4.609375 -3.390625 C 4.609375 -2.660156 4.910156 -2.296875 5.515625 -2.296875 C 5.679688 -2.296875 5.863281 -2.328125 6.0625 -2.390625 L 6.203125 -2.34375 L 6.484375 -0.046875 C 6.316406 0.0351562 6.097656 0.0976562 5.828125 0.140625 C 5.554688 0.191406 5.253906 0.21875 4.921875 0.21875 Z M 4.921875 0.21875 "/></g></g></g></svg>