<svg xmlns="http://www.w3.org/2000/svg" xmlns:xlink="http://www.w3.org/1999/xlink" width="50" zoomAndPan="magnify" viewBox="0 0 375 374.999991" height="50" preserveAspectRatio="xMidYMid meet" version="1.0"><defs><g/><clipPath id="2d891503cd"><path d="M 2.007812 99 L 143 99 L 143 337.21875 L 2.007812 337.21875 Z M 2.007812 99 " clip-rule="nonzero"/></clipPath><clipPath id="667de57e79"><path d="M 232 99 L 373 99 L 373 337.21875 L 232 337.21875 Z M 232 99 " clip-rule="nonzero"/></clipPath><clipPath id="db5ebaf02c"><path d="M 86 34.21875 L 289 34.21875 L 289 330 L 86 330 Z M 86 34.21875 " clip-rule="nonzero"/></clipPath></defs><g clip-path="url(#2d891503cd)"><path fill="#ffffff" d="M 23.003906 267.644531 L 22.953125 101.050781 C 16.53125 99.894531 9.617188 99.210938 2.027344 99.210938 L 2.027344 285.765625 C 2.027344 285.765625 86.089844 295.632812 142.664062 337.492188 C 116.519531 307.371094 77.476562 282.371094 23.003906 267.644531 " fill-opacity="1" fill-rule="nonzero"/></g><path fill="#ffffff" d="M 65.433594 231.203125 L 65.304688 76.035156 C 58.761719 72.851562 51.660156 70.050781 43.878906 67.792969 L 43.878906 254.351562 C 43.878906 254.351562 111.941406 272.453125 158.644531 325.734375 C 137.199219 289.160156 106.839844 252.171875 65.433594 231.203125 " fill-opacity="1" fill-rule="nonzero"/><g clip-path="url(#667de57e79)"><path fill="#ffffff" d="M 351.988281 267.644531 L 352.042969 101.050781 C 358.464844 99.894531 365.375 99.210938 372.96875 99.210938 L 372.96875 285.765625 C 372.96875 285.765625 288.902344 295.632812 232.332031 337.492188 C 258.472656 307.371094 297.515625 282.371094 351.988281 267.644531 " fill-opacity="1" fill-rule="nonzero"/></g><path fill="#ffffff" d="M 309.558594 231.203125 L 309.691406 76.035156 C 316.234375 72.851562 323.332031 70.050781 331.113281 67.792969 L 331.113281 254.351562 C 331.113281 254.351562 263.054688 272.453125 216.347656 325.734375 C 237.792969 289.160156 268.15625 252.171875 309.558594 231.203125 " fill-opacity="1" fill-rule="nonzero"/><g clip-path="url(#db5ebaf02c)"><path fill="#ffffff" d="M 187.496094 139.445312 C 187.496094 139.445312 159.71875 81.136719 86.230469 34.226562 L 86.230469 220.78125 C 86.230469 220.78125 141.210938 257.070312 184.132812 329.421875 L 184.132812 231.347656 C 178.34375 230.050781 174.042969 223.75 174.042969 218.34375 C 174.042969 211.925781 180.066406 204.929688 187.496094 204.929688 C 194.925781 204.929688 200.949219 211.925781 200.949219 218.34375 C 200.949219 223.75 196.652344 230.050781 190.859375 231.347656 L 190.859375 329.421875 C 233.78125 257.066406 288.765625 220.78125 288.765625 220.78125 L 288.765625 34.226562 C 215.273438 81.136719 187.496094 139.445312 187.496094 139.445312 " fill-opacity="1" fill-rule="nonzero"/></g><g fill="#ffffff" fill-opacity="1"><g transform="translate(242.144403, 169.587747)"><g><path d="M 8.953125 0.40625 C 7.003906 0.40625 5.519531 -0.113281 4.5 -1.15625 C 3.476562 -2.207031 2.96875 -3.800781 2.96875 -5.9375 L 2.96875 -30.203125 L 8.375 -30.203125 L 8.375 -6.15625 C 8.375 -4.84375 8.921875 -4.1875 10.015625 -4.1875 C 10.328125 -4.1875 10.660156 -4.238281 11.015625 -4.34375 L 11.296875 -4.265625 L 11.78125 -0.09375 C 11.476562 0.0625 11.078125 0.179688 10.578125 0.265625 C 10.085938 0.359375 9.546875 0.40625 8.953125 0.40625 Z M 8.953125 0.40625 "/></g></g></g></svg>